<svg width="100" height="100" viewBox="0 0 100 100" fill="none" xmlns="http://www.w3.org/2000/svg">
<rect width="100" height="100" fill="#C4C4C4"/>
<path opacity="0.1" fill-rule="evenodd" clip-rule="evenodd" d="M37.9093 33.6363C37.9093 26.9587 43.3226 21.5454 50.0002 21.5454C56.6778 21.5454 62.0911 26.9587 62.0911 33.6363C62.0911 40.3139 56.6778 45.7272 50.0002 45.7272C43.3226 45.7272 37.9093 40.3139 37.9093 33.6363ZM50.0002 19.5454C42.218 19.5454 35.9093 25.8541 35.9093 33.6363C35.9093 41.4185 42.218 47.7272 50.0002 47.7272C57.7824 47.7272 64.0911 41.4185 64.0911 33.6363C64.0911 25.8541 57.7824 19.5454 50.0002 19.5454ZM36.9093 58.8181C33.1721 58.8181 29.588 60.3027 26.9455 62.9453C24.3029 65.5878 22.8184 69.1719 22.8184 72.909V79.4545C22.8184 80.0068 23.2661 80.4545 23.8184 80.4545C24.3706 80.4545 24.8184 80.0068 24.8184 79.4545V72.909C24.8184 69.7023 26.0922 66.627 28.3597 64.3595C30.6272 62.092 33.7026 60.8181 36.9093 60.8181H63.0911C66.2978 60.8181 69.3732 62.092 71.6406 64.3595C73.9081 66.627 75.182 69.7023 75.182 72.909V79.4545C75.182 80.0068 75.6297 80.4545 76.182 80.4545C76.7343 80.4545 77.182 80.0068 77.182 79.4545V72.909C77.182 69.1719 75.6974 65.5878 73.0549 62.9453C70.4123 60.3027 66.8282 58.8181 63.0911 58.8181H36.9093Z" fill="black"/>
</svg>
